<svg width="44" height="44" viewBox="0 0 44 44" fill="none" xmlns="http://www.w3.org/2000/svg">
<rect width="44" height="44" rx="12" fill="#FFFFFF"></rect>
<path d="M10.2418 16.3254L12.9762 19.3426C13.0492 19.4231 13.0469 19.5466 12.9709 19.6244L11.9669 20.6522C11.8837 20.7373 11.7458 20.7343 11.6665 20.6455L7.89982 16.4293C7.83354 16.3551 7.82987 16.2441 7.8911 16.1657L13.507 8.97485C13.546 8.92495 13.6058 8.89575 13.6691 8.89575H30.3401C30.4035 8.89575 30.4634 8.92495 30.5023 8.97495L36.109 16.1661C36.17 16.2443 36.1664 16.3549 36.1005 16.4291L32.1028 20.9303C32.0203 21.0231 31.8752 21.0223 31.7937 20.9286L30.7046 19.6751C30.6364 19.5965 30.6375 19.4793 30.7074 19.4022L33.4043 16.424C33.4693 16.3523 33.4755 16.245 33.4191 16.1663L29.6235 10.8644C29.5849 10.8105 29.5227 10.7785 29.4562 10.7785H14.5418C14.4792 10.7785 14.42 10.807 14.381 10.856L10.2334 16.0591C10.1706 16.1379 10.1741 16.2507 10.2418 16.3254Z" fill="#FAC515"></path>
<path fill-rule="evenodd" clip-rule="evenodd" d="M13.1136 22.0972L20.824 14.2067C20.9195 14.109 21.0819 14.1298 21.1497 14.2484L23.8865 19.0428C23.9518 19.1573 24.1066 19.1816 24.2038 19.0926L26.0086 17.4429C26.0941 17.3648 26.227 17.3725 26.3028 17.46L30.5452 22.3569C30.6126 22.4346 30.612 22.5502 30.544 22.6274L22.2152 32.0807C22.1341 32.1727 21.991 32.1737 21.9086 32.0829L13.1084 22.379C13.0353 22.2985 13.0376 22.1749 13.1136 22.0972ZM20.9422 17.1862L21.2142 18.9011C21.2235 18.9596 21.2654 19.0077 21.3222 19.0247L22.1538 19.2741C22.2277 19.2962 22.2739 19.3696 22.2619 19.4458L21.6051 23.6056C21.5816 23.7539 21.7625 23.8449 21.8676 23.7376L25.8356 19.6888C25.9091 19.6138 26.0343 19.6325 26.0827 19.7257L26.39 20.3186C26.4101 20.3574 26.4128 20.403 26.3974 20.444L25.7984 22.0326C25.7399 22.1879 25.9345 22.3135 26.0518 22.196L26.8902 21.3576C26.9677 21.2802 27.0989 21.3059 27.1414 21.4068L27.5177 22.3007C27.5403 22.3541 27.5309 22.4158 27.4933 22.46L26.9355 23.1194C26.8929 23.1698 26.887 23.2417 26.9209 23.2983L27.1821 23.7335C27.2169 23.7916 27.2098 23.8656 27.1645 23.916L22.3364 29.2874C22.2745 29.3561 22.1665 29.3554 22.1056 29.2859L15.8243 22.1134C15.7705 22.0521 15.7738 21.9595 15.8318 21.9022L20.6815 17.1007C20.7707 17.0123 20.9226 17.0621 20.9422 17.1862Z" fill="#FAC515"></path>
<path fill-rule="evenodd" clip-rule="evenodd" d="M21.9034 33.3671C22.0062 33.4852 22.19 33.4847 22.2922 33.3661L24.3526 30.9737C27.9734 31.2347 30.6114 32.0407 30.6114 32.9947C30.6114 34.1599 26.6756 35.1044 21.8205 35.1044C16.9655 35.1044 13.0297 34.1599 13.0297 32.9947C13.0297 31.9969 15.9154 31.161 19.7929 30.9412L21.9034 33.3671Z" fill="#FAC515"></path>
</svg>