<svg width="374" height="96" viewBox="0 0 374 96" fill="none" xmlns="http://www.w3.org/2000/svg">
<mask id="mask0_1849_2511" style="mask-type:luminance" maskUnits="userSpaceOnUse" x="11" y="23" width="352" height="43">
<path d="M362.592 23H11.408V65.5H362.592V23Z" fill="white"/>
</mask>
<g mask="url(#mask0_1849_2511)">
<mask id="mask1_1849_2511" style="mask-type:luminance" maskUnits="userSpaceOnUse" x="11" y="23" width="352" height="43">
<path d="M362.592 23H11.408V65.5H362.592V23Z" fill="white"/>
</mask>
<g mask="url(#mask1_1849_2511)">
<path d="M15.2669 34.9746L19.6741 39.8376C19.7917 39.9675 19.788 40.1664 19.6656 40.2918L18.0474 41.9484C17.9133 42.0856 17.691 42.0808 17.5631 41.9376L11.4922 35.142C11.3854 35.0225 11.3795 34.8436 11.4782 34.7172L20.5297 23.1274C20.5925 23.047 20.6888 23 20.7909 23H47.6605C47.7627 23 47.8589 23.0471 47.9217 23.1276L56.9583 34.7179C57.0565 34.844 57.0507 35.0223 56.9447 35.1418L50.5015 42.3966C50.3684 42.5462 50.1346 42.5448 50.0033 42.3939L48.2479 40.3734C48.1378 40.2468 48.1396 40.0579 48.2523 39.9336L52.5992 35.1336C52.7039 35.018 52.7137 34.845 52.6229 34.7182L46.5054 26.173C46.4432 26.086 46.3427 26.0345 46.2358 26.0345H22.1974C22.0965 26.0345 22.0012 26.0804 21.9383 26.1593L15.2534 34.5454C15.1521 34.6725 15.1578 34.8542 15.2669 34.9746Z" fill="#FFCC00"/>
<path fill-rule="evenodd" clip-rule="evenodd" d="M19.8949 44.2754L32.3221 31.5578C32.4761 31.4004 32.7379 31.4339 32.847 31.6252L37.2581 39.3525C37.3634 39.5371 37.6128 39.5761 37.7696 39.4327L40.6784 36.7738C40.8162 36.6479 41.0305 36.6604 41.1526 36.8014L47.9902 44.694C48.0989 44.8192 48.098 45.0056 47.9882 45.1299L34.5645 60.3664C34.4338 60.5145 34.2032 60.516 34.0701 60.3698L19.8865 44.7296C19.7687 44.5998 19.7724 44.4006 19.8949 44.2754ZM32.5127 36.3601L32.9511 39.1242C32.966 39.2185 33.0336 39.2959 33.1252 39.3233L34.4654 39.7253C34.5846 39.761 34.6591 39.8792 34.6396 40.002L33.581 46.7067C33.5432 46.9456 33.8348 47.0923 34.0041 46.9194L40.3997 40.3936C40.518 40.2727 40.7198 40.303 40.7979 40.4532L41.2933 41.4087C41.3255 41.4714 41.3298 41.5448 41.305 41.6108L40.3398 44.1712C40.2454 44.4216 40.559 44.6239 40.7482 44.4347L42.0993 43.0834C42.2243 42.9585 42.4357 43 42.5044 43.1627L43.1108 44.6033C43.1472 44.6895 43.1318 44.7889 43.0714 44.8603L42.1722 45.9229C42.1037 46.0041 42.0941 46.12 42.1489 46.2112L42.5697 46.9127C42.626 47.0062 42.6144 47.1256 42.5415 47.2068L34.7597 55.8641C34.66 55.9748 34.486 55.9739 34.388 55.8616L24.2638 44.3016C24.1772 44.2027 24.1825 44.0534 24.2759 43.9611L32.0924 36.2223C32.2363 36.0799 32.4811 36.16 32.5127 36.3601Z" fill="#FFCC00"/>
<path fill-rule="evenodd" clip-rule="evenodd" d="M34.0635 62.441C34.229 62.6314 34.5252 62.6307 34.6901 62.4395L38.0109 58.5834C43.8468 59.0041 48.0984 60.3033 48.0984 61.8409C48.0984 63.7189 41.7549 65.2413 33.9298 65.2413C26.1046 65.2413 19.7611 63.7189 19.7611 61.8409C19.7611 60.2326 24.4121 58.8853 30.6617 58.5312L34.0635 62.441Z" fill="#FFCC00"/>
<path d="M75.739 61.4812V37.0833H79.4202V47.686H91.5835V37.0833H95.2765V61.4812H91.5835V50.8428H79.4202V61.4812H75.739ZM100.016 61.4812V43.1828H103.578V61.4812H100.016ZM101.815 40.3594C101.195 40.3594 100.663 40.1529 100.219 39.7399C99.7817 39.319 99.5634 38.8186 99.5634 38.2389C99.5634 37.6512 99.7817 37.1508 100.219 36.7378C100.663 36.3169 101.195 36.1064 101.815 36.1064C102.434 36.1064 102.962 36.3169 103.399 36.7378C103.844 37.1508 104.066 37.6512 104.066 38.2389C104.066 38.8186 103.844 39.319 103.399 39.7399C102.962 40.1529 102.434 40.3594 101.815 40.3594ZM114.885 61.8387C113.407 61.8387 112.089 61.4613 110.929 60.7071C109.778 59.9445 108.872 58.8605 108.213 57.4547C107.562 56.041 107.236 54.3455 107.236 52.3679C107.236 50.3901 107.566 48.6986 108.225 47.2927C108.892 45.8871 109.806 44.8109 110.965 44.0644C112.125 43.3178 113.439 42.9446 114.908 42.9446C116.044 42.9446 116.958 43.1352 117.648 43.5163C118.347 43.8896 118.887 44.3264 119.269 44.8268C119.658 45.3272 119.96 45.7679 120.174 46.149H120.388V37.0833H123.95V61.4812H120.472V58.634H120.174C119.96 59.0234 119.65 59.4678 119.245 59.9685C118.848 60.4686 118.3 60.9055 117.601 61.2788C116.902 61.6521 115.996 61.8387 114.885 61.8387ZM115.671 58.8008C116.695 58.8008 117.561 58.5308 118.268 57.9909C118.983 57.4428 119.523 56.6843 119.888 55.7153C120.261 54.7465 120.448 53.6187 120.448 52.3321C120.448 51.0613 120.265 49.9494 119.9 48.9963C119.535 48.0434 118.999 47.3008 118.292 46.7686C117.585 46.2365 116.711 45.9705 115.671 45.9705C114.599 45.9705 113.705 46.2483 112.99 46.8044C112.276 47.3603 111.735 48.1188 111.37 49.0797C111.013 50.0407 110.834 51.1249 110.834 52.3321C110.834 53.5552 111.017 54.6551 111.382 55.6321C111.747 56.6089 112.288 57.3831 113.002 57.9551C113.725 58.519 114.614 58.8008 115.671 58.8008ZM135.549 61.8387C134.072 61.8387 132.753 61.4613 131.594 60.7071C130.442 59.9445 129.537 58.8605 128.878 57.4547C128.227 56.041 127.901 54.3455 127.901 52.3679C127.901 50.3901 128.23 48.6986 128.89 47.2927C129.557 45.8871 130.47 44.8109 131.63 44.0644C132.789 43.3178 134.104 42.9446 135.573 42.9446C136.709 42.9446 137.622 43.1352 138.313 43.5163C139.012 43.8896 139.552 44.3264 139.933 44.8268C140.322 45.3272 140.624 45.7679 140.838 46.149H141.053V37.0833H144.615V61.4812H141.136V58.634H140.838C140.624 59.0234 140.314 59.4678 139.909 59.9685C139.512 60.4686 138.964 60.9055 138.265 61.2788C137.566 61.6521 136.661 61.8387 135.549 61.8387ZM136.335 58.8008C137.36 58.8008 138.225 58.5308 138.932 57.9909C139.647 57.4428 140.187 56.6843 140.552 55.7153C140.926 54.7465 141.113 53.6187 141.113 52.3321C141.113 51.0613 140.93 49.9494 140.564 48.9963C140.199 48.0434 139.663 47.3008 138.956 46.7686C138.249 46.2365 137.376 45.9705 136.335 45.9705C135.263 45.9705 134.37 46.2483 133.655 46.8044C132.94 47.3603 132.4 48.1188 132.035 49.0797C131.677 50.0407 131.498 51.1249 131.498 52.3321C131.498 53.5552 131.681 54.6551 132.047 55.6321C132.412 56.6089 132.952 57.3831 133.667 57.9551C134.389 58.519 135.279 58.8008 136.335 58.8008ZM157.25 61.8508C155.447 61.8508 153.894 61.4653 152.592 60.695C151.297 59.9168 150.297 58.8248 149.59 57.4189C148.891 56.0052 148.541 54.3493 148.541 52.4511C148.541 50.5768 148.891 48.9249 149.59 47.4954C150.297 46.0658 151.281 44.9499 152.544 44.1478C153.815 43.3456 155.3 42.9446 157 42.9446C158.032 42.9446 159.033 43.1153 160.002 43.4568C160.971 43.7983 161.84 44.3344 162.611 45.065C163.382 45.7958 163.988 46.7447 164.434 47.9123C164.878 49.0719 165.1 50.4816 165.1 52.1415V53.4042H150.554V50.7357H161.61C161.61 49.7986 161.419 48.9686 161.038 48.2458C160.657 47.5153 160.121 46.9393 159.43 46.5185C158.747 46.0976 157.945 45.8871 157.023 45.8871C156.023 45.8871 155.149 46.1331 154.402 46.6257C153.664 47.1102 153.092 47.7455 152.687 48.5317C152.29 49.3101 152.091 50.1559 152.091 51.0692V53.1541C152.091 54.377 152.306 55.4176 152.735 56.2752C153.172 57.133 153.779 57.7882 154.557 58.2409C155.336 58.6856 156.245 58.908 157.286 58.908C157.961 58.908 158.576 58.8127 159.132 58.6221C159.688 58.4237 160.169 58.1298 160.573 57.7406C160.979 57.3513 161.288 56.8709 161.503 56.2991L164.875 56.9067C164.603 57.8996 164.119 58.7691 163.421 59.5157C162.73 60.2543 161.86 60.8301 160.812 61.243C159.771 61.6481 158.584 61.8508 157.25 61.8508ZM172.279 50.6167V61.4812H168.717V43.1828H172.137V46.1611H172.362C172.784 45.1922 173.442 44.4139 174.34 43.8261C175.246 43.2384 176.385 42.9446 177.759 42.9446C179.006 42.9446 180.099 43.2067 181.035 43.7308C181.972 44.247 182.7 45.0174 183.216 46.0419C183.732 47.0663 183.99 48.3333 183.99 49.8423V61.4812H180.428V50.2711C180.428 48.9448 180.082 47.9083 179.392 47.1616C178.7 46.4074 177.751 46.03 176.544 46.03C175.718 46.03 174.984 46.2087 174.34 46.566C173.705 46.9234 173.2 47.4477 172.827 48.1387C172.462 48.8216 172.279 49.6477 172.279 50.6167ZM205.228 44.7911C204.999 44.0683 204.688 43.421 204.3 42.8492C203.919 42.2695 203.462 41.7771 202.929 41.372C202.398 40.959 201.79 40.6453 201.108 40.4309C200.431 40.2164 199.69 40.1092 198.88 40.1092C197.506 40.1092 196.266 40.4627 195.162 41.1695C194.059 41.8763 193.185 42.9128 192.542 44.2789C191.906 45.6368 191.588 47.3008 191.588 49.2703C191.588 51.2479 191.91 52.9197 192.553 54.2858C193.197 55.6518 194.078 56.6883 195.198 57.3952C196.318 58.102 197.592 58.4555 199.023 58.4555C200.349 58.4555 201.504 58.1852 202.49 57.6453C203.482 57.1053 204.249 56.3428 204.789 55.3579C205.336 54.3652 205.61 53.1978 205.61 51.8554L206.563 52.0341H199.582V48.9963H209.173V51.7722C209.173 53.8212 208.736 55.6001 207.862 57.1091C206.996 58.6102 205.796 59.7698 204.264 60.5878C202.739 61.4058 200.992 61.815 199.023 61.815C196.814 61.815 194.877 61.3068 193.208 60.2901C191.548 59.2735 190.254 57.8318 189.326 55.9656C188.396 54.0911 187.931 51.8675 187.931 49.2942C187.931 47.3484 188.201 45.601 188.741 44.0524C189.281 42.5038 190.04 41.1894 191.016 40.1092C192.002 39.0212 193.157 38.1912 194.483 37.6194C195.818 37.0396 197.275 36.7497 198.856 36.7497C200.174 36.7497 201.401 36.9443 202.537 37.3335C203.681 37.7226 204.697 38.2746 205.586 38.9894C206.484 39.7042 207.227 40.554 207.814 41.5388C208.402 42.5157 208.8 43.5997 209.006 44.7911H205.228ZM221.11 61.8508C219.307 61.8508 217.755 61.4653 216.452 60.695C215.158 59.9168 214.158 58.8248 213.451 57.4189C212.751 56.0052 212.401 54.3493 212.401 52.4511C212.401 50.5768 212.751 48.9249 213.451 47.4954C214.158 46.0658 215.141 44.9499 216.405 44.1478C217.676 43.3456 219.161 42.9446 220.86 42.9446C221.893 42.9446 222.893 43.1153 223.862 43.4568C224.831 43.7983 225.7 44.3344 226.471 45.065C227.241 45.7958 227.849 46.7447 228.295 47.9123C228.739 49.0719 228.961 50.4816 228.961 52.1415V53.4042H214.415V50.7357H225.471C225.471 49.7986 225.28 48.9686 224.899 48.2458C224.517 47.5153 223.982 46.9393 223.29 46.5185C222.607 46.0976 221.805 45.8871 220.884 45.8871C219.883 45.8871 219.009 46.1331 218.263 46.6257C217.524 47.1102 216.952 47.7455 216.547 48.5317C216.15 49.3101 215.952 50.1559 215.952 51.0692V53.1541C215.952 54.377 216.166 55.4176 216.595 56.2752C217.032 57.133 217.64 57.7882 218.418 58.2409C219.196 58.6856 220.106 58.908 221.145 58.908C221.822 58.908 222.437 58.8127 222.992 58.6221C223.549 58.4237 224.029 58.1298 224.434 57.7406C224.839 57.3513 225.149 56.8709 225.364 56.2991L228.734 56.9067C228.464 57.8996 227.98 58.7691 227.281 59.5157C226.59 60.2543 225.721 60.8301 224.672 61.243C223.632 61.6481 222.444 61.8508 221.11 61.8508ZM232.578 61.4812V43.1828H235.996V46.1611H236.224C236.604 45.1524 237.228 44.3661 238.094 43.8023C238.96 43.2305 239.995 42.9446 241.203 42.9446C242.427 42.9446 243.451 43.2305 244.277 43.8023C245.111 44.3742 245.726 45.1604 246.124 46.1611H246.312C246.75 45.1842 247.446 44.4059 248.399 43.8261C249.352 43.2384 250.486 42.9446 251.806 42.9446C253.466 42.9446 254.819 43.4647 255.868 44.5051C256.924 45.5455 257.452 47.1142 257.452 49.2108V61.4812H253.89V49.5445C253.89 48.3053 253.553 47.4079 252.877 46.8521C252.202 46.296 251.396 46.0182 250.459 46.0182C249.3 46.0182 248.399 46.3756 247.755 47.0903C247.113 47.7971 246.791 48.7064 246.791 49.8183V61.4812H243.241V49.318C243.241 48.3252 242.93 47.5271 242.31 46.9234C241.691 46.3199 240.885 46.0182 239.892 46.0182C239.219 46.0182 238.595 46.1969 238.022 46.5543C237.459 46.9037 237 47.392 236.651 48.0195C236.311 48.6469 236.139 49.3736 236.139 50.1997V61.4812H232.578ZM270.718 37.0833H275.187L282.956 56.0491H283.24L291.006 37.0833H295.476V61.4812H291.973V43.8261H291.747L284.551 61.4454H281.643L274.449 43.8142H274.221V61.4812H270.718V37.0833ZM308.091 61.8508C306.289 61.8508 304.736 61.4653 303.434 60.695C302.139 59.9168 301.139 58.8248 300.432 57.4189C299.732 56.0052 299.383 54.3493 299.383 52.4511C299.383 50.5768 299.732 48.9249 300.432 47.4954C301.139 46.0658 302.124 44.9499 303.387 44.1478C304.658 43.3456 306.143 42.9446 307.843 42.9446C308.874 42.9446 309.876 43.1153 310.845 43.4568C311.814 43.7983 312.684 44.3344 313.453 45.065C314.223 45.7958 314.831 46.7447 315.276 47.9123C315.721 49.0719 315.943 50.4816 315.943 52.1415V53.4042H301.399V50.7357H312.451C312.451 49.7986 312.261 48.9686 311.881 48.2458C311.5 47.5153 310.964 46.9393 310.272 46.5185C309.59 46.0976 308.787 45.8871 307.865 45.8871C306.866 45.8871 305.991 46.1331 305.244 46.6257C304.508 47.1102 303.935 47.7455 303.53 48.5317C303.132 49.3101 302.933 50.1559 302.933 51.0692V53.1541C302.933 54.377 303.148 55.4176 303.577 56.2752C304.014 57.133 304.622 57.7882 305.401 58.2409C306.179 58.6856 307.087 58.908 308.127 58.908C308.803 58.908 309.418 58.8127 309.975 58.6221C310.53 58.4237 311.013 58.1298 311.418 57.7406C311.822 57.3513 312.131 56.8709 312.346 56.2991L315.717 56.9067C315.446 57.8996 314.963 58.7691 314.263 59.5157C313.572 60.2543 312.702 60.8301 311.655 61.243C310.615 61.6481 309.427 61.8508 308.091 61.8508ZM326.409 61.8387C324.933 61.8387 323.615 61.4613 322.454 60.7071C321.302 59.9445 320.396 58.8605 319.739 57.4547C319.088 56.041 318.761 54.3455 318.761 52.3679C318.761 50.3901 319.092 48.6986 319.75 47.2927C320.419 45.8871 321.331 44.8109 322.49 44.0644C323.649 43.3178 324.964 42.9446 326.434 42.9446C327.568 42.9446 328.482 43.1352 329.174 43.5163C329.872 43.8896 330.413 44.3264 330.793 44.8268C331.182 45.3272 331.484 45.7679 331.699 46.149H331.914V37.0833H335.477V61.4812H331.997V58.634H331.699C331.484 59.0234 331.176 59.4678 330.769 59.9685C330.373 60.4686 329.825 60.9055 329.127 61.2788C328.427 61.6521 327.521 61.8387 326.409 61.8387ZM327.196 58.8008C328.221 58.8008 329.086 58.5308 329.793 57.9909C330.509 57.4428 331.048 56.6843 331.415 55.7153C331.786 54.7465 331.974 53.6187 331.974 52.3321C331.974 51.0613 331.791 49.9494 331.426 48.9963C331.062 48.0434 330.522 47.3008 329.818 46.7686C329.111 46.2365 328.236 45.9705 327.196 45.9705C326.125 45.9705 325.23 46.2483 324.514 46.8044C323.801 47.3603 323.262 48.1188 322.895 49.0797C322.537 50.0407 322.36 51.1249 322.36 52.3321C322.36 53.5552 322.541 54.6551 322.908 55.6321C323.273 56.6089 323.812 57.3831 324.528 57.9551C325.25 58.519 326.14 58.8008 327.196 58.8008ZM340.226 61.4812V43.1828H343.787V61.4812H340.226ZM342.022 40.3594C341.405 40.3594 340.872 40.1529 340.427 39.7399C339.989 39.319 339.772 38.8186 339.772 38.2389C339.772 37.6512 339.989 37.1508 340.427 36.7378C340.872 36.3169 341.405 36.1064 342.022 36.1064C342.642 36.1064 343.172 36.3169 343.608 36.7378C344.051 37.1508 344.275 37.6512 344.275 38.2389C344.275 38.8186 344.051 39.319 343.608 39.7399C343.172 40.1529 342.642 40.3594 342.022 40.3594ZM353.569 61.8863C352.408 61.8863 351.361 61.672 350.424 61.243C349.484 60.8062 348.744 60.1747 348.196 59.3488C347.654 58.5228 347.386 57.5102 347.386 56.311C347.386 55.2785 347.585 54.4287 347.981 53.7617C348.377 53.0944 348.914 52.5663 349.589 52.1771C350.265 51.7881 351.019 51.4942 351.853 51.2955C352.685 51.0969 353.537 50.9461 354.403 50.8428C355.497 50.7158 356.387 50.6126 357.069 50.533C357.754 50.4458 358.25 50.3069 358.559 50.1161C358.87 49.9257 359.024 49.6159 359.024 49.1869V49.1034C359.024 48.0631 358.731 47.2571 358.143 46.6852C357.564 46.1135 356.698 45.8276 355.546 45.8276C354.347 45.8276 353.401 46.0935 352.71 46.6257C352.027 47.1498 351.556 47.7336 351.294 48.3769L347.945 47.6144C348.343 46.5027 348.921 45.605 349.683 44.9221C350.455 44.2311 351.341 43.7308 352.341 43.421C353.341 43.1034 354.394 42.9446 355.497 42.9446C356.228 42.9446 357.002 43.0319 357.821 43.2066C358.646 43.3734 359.418 43.6832 360.132 44.1359C360.856 44.5885 361.447 45.2358 361.908 46.0777C362.368 46.9116 362.599 47.9955 362.599 49.33V61.4812H359.12V58.9795H358.977C358.745 59.4403 358.4 59.8928 357.939 60.3375C357.479 60.7824 356.888 61.1517 356.166 61.4454C355.441 61.7394 354.575 61.8863 353.569 61.8863ZM354.343 59.0272C355.327 59.0272 356.17 58.8326 356.868 58.4436C357.575 58.0542 358.112 57.546 358.476 56.9185C358.85 56.2833 359.036 55.6041 359.036 54.8814V52.5227C358.908 52.6497 358.664 52.769 358.297 52.8801C357.939 52.9832 357.53 53.0747 357.069 53.1541C356.609 53.2255 356.161 53.293 355.725 53.3566C355.287 53.412 354.922 53.4599 354.629 53.4995C353.938 53.587 353.305 53.7339 352.734 53.9402C352.171 54.1468 351.717 54.4446 351.377 54.8338C351.043 55.2152 350.875 55.7234 350.875 56.3586C350.875 57.2402 351.202 57.9074 351.853 58.3599C352.504 58.8048 353.334 59.0272 354.343 59.0272Z" fill="white"/>
</g>
</g>
</svg>
