<svg width="248" height="54" viewBox="0 0 248 54" fill="none" xmlns="http://www.w3.org/2000/svg">
<g clip-path="url(#clip0_1868_226)">
<path d="M35.1189 36.8301V20.3618H38.1022V27.3335H45.7333V20.3618H48.7246V36.8301H45.7333V29.8343H38.1022V36.8301H35.1189ZM51.8406 36.8301V24.4788H54.7515V36.8301H51.8406ZM53.3041 22.7259C52.843 22.7259 52.4463 22.5731 52.114 22.2675C51.7816 21.9566 51.6154 21.584 51.6154 21.1498C51.6154 20.7102 51.7816 20.3376 52.114 20.0321C52.4463 19.7211 52.843 19.5657 53.3041 19.5657C53.7704 19.5657 54.1671 19.7211 54.4941 20.0321C54.8265 20.3376 54.9927 20.7102 54.9927 21.1498C54.9927 21.584 54.8265 21.9566 54.4941 22.2675C54.1671 22.5731 53.7704 22.7259 53.3041 22.7259ZM62.3283 37.0472C61.358 37.0472 60.4895 36.7979 59.7229 36.2994C58.9563 35.8008 58.3506 35.0771 57.9056 34.1282C57.4607 33.1794 57.2382 32.0268 57.2382 30.6705C57.2382 29.2982 57.4633 28.1403 57.9137 27.1968C58.3693 26.2479 58.9831 25.5322 59.7551 25.0498C60.527 24.5619 61.3874 24.318 62.3363 24.318C63.06 24.318 63.6551 24.4413 64.1214 24.6879C64.5878 24.9291 64.9577 25.2213 65.2311 25.5644C65.5045 25.9021 65.7163 26.2211 65.8664 26.5213H65.987V20.3618H68.9059V36.8301H66.0433V34.8841H65.8664C65.7163 35.1843 65.4992 35.5033 65.215 35.841C64.9309 36.1734 64.5557 36.4575 64.0893 36.6934C63.6229 36.9293 63.0359 37.0472 62.3283 37.0472ZM63.1404 34.659C63.7569 34.659 64.2823 34.4928 64.7165 34.1604C65.1507 33.8227 65.4804 33.3536 65.7055 32.7532C65.9307 32.1528 66.0433 31.4532 66.0433 30.6545C66.0433 29.8557 65.9307 29.1615 65.7055 28.5718C65.4858 27.9821 65.1587 27.5238 64.7245 27.1968C64.2957 26.8697 63.7676 26.7062 63.1404 26.7062C62.4918 26.7062 61.9503 26.8751 61.5161 27.2128C61.0819 27.5506 60.7549 28.017 60.5351 28.612C60.3153 29.207 60.2054 29.8879 60.2054 30.6545C60.2054 31.4264 60.3153 32.1153 60.5351 32.721C60.7602 33.3214 61.0899 33.7959 61.5241 34.1443C61.9637 34.4874 62.5025 34.659 63.1404 34.659ZM76.5913 37.0472C75.621 37.0472 74.7525 36.7979 73.9859 36.2994C73.2194 35.8008 72.6136 35.0771 72.1686 34.1282C71.7237 33.1794 71.5012 32.0268 71.5012 30.6705C71.5012 29.2982 71.7264 28.1403 72.1767 27.1968C72.6323 26.2479 73.2462 25.5322 74.0181 25.0498C74.7901 24.5619 75.6505 24.318 76.5993 24.318C77.323 24.318 77.9181 24.4413 78.3845 24.6879C78.8509 24.9291 79.2207 25.2213 79.4941 25.5644C79.7675 25.9021 79.9793 26.2211 80.1294 26.5213H80.25V20.3618H83.169V36.8301H80.3063V34.8841H80.1294C79.9793 35.1843 79.7622 35.5033 79.4781 35.841C79.1939 36.1734 78.8187 36.4575 78.3523 36.6934C77.8859 36.9293 77.2989 37.0472 76.5913 37.0472ZM77.4034 34.659C78.0199 34.659 78.5453 34.4928 78.9795 34.1604C79.4137 33.8227 79.7434 33.3536 79.9686 32.7532C80.1937 32.1528 80.3063 31.4532 80.3063 30.6545C80.3063 29.8557 80.1937 29.1615 79.9686 28.5718C79.7488 27.9821 79.4218 27.5238 78.9876 27.1968C78.5587 26.8697 78.0307 26.7062 77.4034 26.7062C76.7548 26.7062 76.2133 26.8751 75.7791 27.2128C75.3449 27.5506 75.0179 28.017 74.7981 28.612C74.5783 29.207 74.4684 29.8879 74.4684 30.6545C74.4684 31.4264 74.5783 32.1153 74.7981 32.721C75.0233 33.3214 75.3529 33.7959 75.7872 34.1443C76.2267 34.4874 76.7655 34.659 77.4034 34.659ZM91.7388 37.0713C90.5005 37.0713 89.431 36.814 88.5304 36.2994C87.6352 35.7794 86.9463 35.0449 86.4638 34.0961C85.9814 33.1419 85.7401 32.0188 85.7401 30.7268C85.7401 29.4563 85.9814 28.3413 86.4638 27.3817C86.9517 26.4168 87.6325 25.6663 88.5063 25.1302C89.3801 24.5887 90.4067 24.318 91.5861 24.318C92.3473 24.318 93.0656 24.4413 93.7411 24.6879C94.4219 24.9291 95.0223 25.3044 95.5423 25.8137C96.0677 26.3229 96.4804 26.9716 96.7807 27.7596C97.0809 28.5423 97.231 29.4751 97.231 30.558V31.4505H87.1071V29.4885H94.4407C94.4353 28.931 94.3147 28.4351 94.0788 28.0009C93.8429 27.5613 93.5133 27.2155 93.0898 26.9636C92.6716 26.7116 92.1838 26.5856 91.6263 26.5856C91.0312 26.5856 90.5085 26.7304 90.0582 27.0198C89.6079 27.304 89.2568 27.6792 89.0048 28.1456C88.7582 28.6066 88.6323 29.1132 88.6269 29.6654V31.3782C88.6269 32.0965 88.7582 32.713 89.0209 33.2276C89.2836 33.7369 89.6508 34.1282 90.1226 34.4016C90.5943 34.6697 91.1465 34.8037 91.779 34.8037C92.2025 34.8037 92.5858 34.7447 92.9289 34.6268C93.272 34.5035 93.5695 34.3239 93.8215 34.088C94.0735 33.8522 94.2638 33.56 94.3924 33.2116L97.1103 33.5171C96.9388 34.2355 96.6118 34.8627 96.1293 35.3987C95.6522 35.9295 95.0411 36.3422 94.2959 36.6371C93.5508 36.9266 92.6984 37.0713 91.7388 37.0713ZM102.604 29.593V36.8301H99.6936V24.4788H102.476V26.5776H102.621C102.905 25.886 103.358 25.3366 103.98 24.9291C104.607 24.5217 105.381 24.318 106.303 24.318C107.156 24.318 107.898 24.5003 108.531 24.8648C109.169 25.2293 109.662 25.7574 110.01 26.4489C110.364 27.1405 110.538 27.9794 110.533 28.9658V36.8301H107.622V29.4161C107.622 28.5906 107.408 27.9446 106.979 27.4782C106.555 27.0118 105.968 26.7786 105.218 26.7786C104.709 26.7786 104.256 26.8912 103.859 27.1163C103.468 27.3361 103.159 27.6551 102.934 28.0732C102.714 28.4914 102.604 28.998 102.604 29.593ZM124.653 25.6207C124.519 25.1865 124.334 24.7978 124.099 24.4547C123.868 24.1063 123.589 23.8087 123.262 23.5621C122.941 23.3156 122.571 23.1306 122.153 23.0073C121.734 22.8786 121.279 22.8143 120.786 22.8143C119.901 22.8143 119.113 23.0368 118.421 23.4817C117.73 23.9267 117.186 24.5807 116.789 25.4438C116.398 26.3015 116.202 27.3469 116.202 28.5798C116.202 29.8235 116.398 30.8769 116.789 31.74C117.18 32.6031 117.725 33.2598 118.421 33.7101C119.118 34.155 119.928 34.3775 120.85 34.3775C121.686 34.3775 122.41 34.2167 123.021 33.8951C123.637 33.5734 124.112 33.1177 124.444 32.5281C124.777 31.933 124.943 31.2361 124.943 30.4373L125.618 30.5419H121.147V28.2099H127.83V30.1881C127.83 31.598 127.529 32.8175 126.929 33.8468C126.329 34.8761 125.503 35.6695 124.452 36.227C123.402 36.7792 122.195 37.0552 120.834 37.0552C119.317 37.0552 117.985 36.7148 116.837 36.034C115.695 35.3478 114.803 34.3748 114.16 33.1151C113.522 31.8499 113.203 30.3489 113.203 28.612C113.203 27.2825 113.39 26.0951 113.766 25.0498C114.146 24.0044 114.677 23.1172 115.358 22.3881C116.039 21.6537 116.837 21.0962 117.754 20.7156C118.671 20.3296 119.668 20.1366 120.745 20.1366C121.657 20.1366 122.506 20.2706 123.294 20.5387C124.082 20.8013 124.782 21.1766 125.393 21.6644C126.01 22.1523 126.516 22.7312 126.913 23.4013C127.31 24.0714 127.57 24.8112 127.693 25.6207H124.653ZM136.054 37.0713C134.815 37.0713 133.746 36.814 132.845 36.2994C131.95 35.7794 131.261 35.0449 130.779 34.0961C130.296 33.1419 130.055 32.0188 130.055 30.7268C130.055 29.4563 130.296 28.3413 130.779 27.3817C131.267 26.4168 131.947 25.6663 132.821 25.1302C133.695 24.5887 134.722 24.318 135.901 24.318C136.662 24.318 137.381 24.4413 138.056 24.6879C138.737 24.9291 139.337 25.3044 139.857 25.8137C140.383 26.3229 140.795 26.9716 141.096 27.7596C141.396 28.5423 141.546 29.4751 141.546 30.558V31.4505H131.422V29.4885H138.756C138.75 28.931 138.63 28.4351 138.394 28.0009C138.158 27.5613 137.828 27.2155 137.405 26.9636C136.987 26.7116 136.499 26.5856 135.941 26.5856C135.346 26.5856 134.823 26.7304 134.373 27.0198C133.923 27.304 133.572 27.6792 133.32 28.1456C133.073 28.6066 132.947 29.1132 132.942 29.6654V31.3782C132.942 32.0965 133.073 32.713 133.336 33.2276C133.598 33.7369 133.966 34.1282 134.437 34.4016C134.909 34.6697 135.461 34.8037 136.094 34.8037C136.517 34.8037 136.901 34.7447 137.244 34.6268C137.587 34.5035 137.884 34.3239 138.136 34.088C138.388 33.8522 138.579 33.56 138.707 33.2116L141.425 33.5171C141.254 34.2355 140.927 34.8627 140.444 35.3987C139.967 35.9295 139.356 36.3422 138.611 36.6371C137.866 36.9266 137.013 37.0713 136.054 37.0713ZM144.008 36.8301V24.4788H146.791V26.5776H146.935C147.193 25.87 147.619 25.3178 148.214 24.9211C148.809 24.519 149.519 24.318 150.345 24.318C151.181 24.318 151.886 24.5217 152.46 24.9291C153.039 25.3312 153.446 25.8807 153.682 26.5776H153.811C154.084 25.8914 154.545 25.3446 155.194 24.9372C155.848 24.5244 156.622 24.318 157.518 24.318C158.654 24.318 159.582 24.6772 160.3 25.3955C161.018 26.1139 161.377 27.1619 161.377 28.5396V36.8301H158.458V28.9899C158.458 28.2233 158.255 27.6631 157.847 27.3093C157.44 26.9502 156.941 26.7706 156.352 26.7706C155.649 26.7706 155.1 26.9904 154.703 27.4299C154.312 27.8642 154.116 28.4297 154.116 29.1266V36.8301H151.262V28.8693C151.262 28.2314 151.069 27.7221 150.683 27.3415C150.302 26.9609 149.803 26.7706 149.187 26.7706C148.769 26.7706 148.388 26.8778 148.045 27.0922C147.702 27.3013 147.429 27.5988 147.225 27.9848C147.021 28.3654 146.919 28.8104 146.919 29.3196V36.8301H144.008ZM170.076 20.3618H173.727L178.616 32.2949H178.809L183.698 20.3618H187.348V36.8301H184.486V25.5162H184.333L179.782 36.7818H177.643L173.091 25.492H172.939V36.8301H170.076V20.3618ZM195.936 37.0713C194.698 37.0713 193.629 36.814 192.728 36.2994C191.833 35.7794 191.144 35.0449 190.661 34.0961C190.179 33.1419 189.938 32.0188 189.938 30.7268C189.938 29.4563 190.179 28.3413 190.661 27.3817C191.149 26.4168 191.83 25.6663 192.704 25.1302C193.578 24.5887 194.604 24.318 195.784 24.318C196.545 24.318 197.263 24.4413 197.939 24.6879C198.619 24.9291 199.22 25.3044 199.74 25.8137C200.265 26.3229 200.678 26.9716 200.978 27.7596C201.278 28.5423 201.428 29.4751 201.428 30.558V31.4505H191.305V29.4885H198.638C198.633 28.931 198.512 28.4351 198.276 28.0009C198.04 27.5613 197.711 27.2155 197.287 26.9636C196.869 26.7116 196.381 26.5856 195.824 26.5856C195.229 26.5856 194.706 26.7304 194.256 27.0198C193.805 27.304 193.454 27.6792 193.202 28.1456C192.956 28.6066 192.83 29.1132 192.824 29.6654V31.3782C192.824 32.0965 192.956 32.713 193.218 33.2276C193.481 33.7369 193.848 34.1282 194.32 34.4016C194.792 34.6697 195.344 34.8037 195.977 34.8037C196.4 34.8037 196.783 34.7447 197.126 34.6268C197.47 34.5035 197.767 34.3239 198.019 34.088C198.271 33.8522 198.461 33.56 198.59 33.2116L201.308 33.5171C201.136 34.2355 200.809 34.8627 200.327 35.3987C199.85 35.9295 199.239 36.3422 198.493 36.6371C197.748 36.9266 196.896 37.0713 195.936 37.0713ZM208.475 37.0472C207.504 37.0472 206.636 36.7979 205.869 36.2994C205.103 35.8008 204.497 35.0771 204.052 34.1282C203.607 33.1794 203.384 32.0268 203.384 30.6705C203.384 29.2982 203.61 28.1403 204.06 27.1968C204.516 26.2479 205.129 25.5322 205.901 25.0498C206.673 24.5619 207.534 24.318 208.483 24.318C209.206 24.318 209.801 24.4413 210.268 24.6879C210.734 24.9291 211.104 25.2213 211.377 25.5644C211.651 25.9021 211.863 26.2211 212.013 26.5213H212.133V20.3618H215.052V36.8301H212.19V34.8841H212.013C211.863 35.1843 211.645 35.5033 211.361 35.841C211.077 36.1734 210.702 36.4575 210.236 36.6934C209.769 36.9293 209.182 37.0472 208.475 37.0472ZM209.287 34.659C209.903 34.659 210.429 34.4928 210.863 34.1604C211.297 33.8227 211.627 33.3536 211.852 32.7532C212.077 32.1528 212.19 31.4532 212.19 30.6545C212.19 29.8557 212.077 29.1615 211.852 28.5718C211.632 27.9821 211.305 27.5238 210.871 27.1968C210.442 26.8697 209.914 26.7062 209.287 26.7062C208.638 26.7062 208.097 26.8751 207.662 27.2128C207.228 27.5506 206.901 28.017 206.681 28.612C206.462 29.207 206.352 29.8879 206.352 30.6545C206.352 31.4264 206.462 32.1153 206.681 32.721C206.906 33.3214 207.236 33.7959 207.67 34.1443C208.11 34.4874 208.649 34.659 209.287 34.659ZM218.154 36.8301V24.4788H221.065V36.8301H218.154ZM219.618 22.7259C219.157 22.7259 218.76 22.5731 218.427 22.2675C218.095 21.9566 217.929 21.584 217.929 21.1498C217.929 20.7102 218.095 20.3376 218.427 20.0321C218.76 19.7211 219.157 19.5657 219.618 19.5657C220.084 19.5657 220.481 19.7211 220.808 20.0321C221.14 20.3376 221.306 20.7102 221.306 21.1498C221.306 21.584 221.14 21.9566 220.808 22.2675C220.481 22.5731 220.084 22.7259 219.618 22.7259ZM227.613 37.0794C226.83 37.0794 226.125 36.94 225.498 36.6612C224.876 36.3771 224.383 35.959 224.018 35.4068C223.659 34.8546 223.479 34.1738 223.479 33.3643C223.479 32.6674 223.608 32.0911 223.865 31.6355C224.123 31.1798 224.474 30.8153 224.919 30.5419C225.364 30.2685 225.865 30.0621 226.422 29.9227C226.985 29.778 227.567 29.6734 228.167 29.6091C228.891 29.5341 229.478 29.467 229.928 29.4081C230.379 29.3437 230.706 29.2473 230.909 29.1186C231.118 28.9846 231.223 28.7782 231.223 28.4994V28.4512C231.223 27.8454 231.043 27.3763 230.684 27.044C230.325 26.7116 229.808 26.5454 229.132 26.5454C228.419 26.5454 227.854 26.7009 227.436 27.0118C227.023 27.3227 226.744 27.6899 226.599 28.1134L223.881 27.7275C224.096 26.977 224.45 26.3498 224.943 25.8458C225.436 25.3366 226.039 24.9559 226.752 24.704C227.465 24.4467 228.253 24.318 229.116 24.318C229.711 24.318 230.304 24.3877 230.893 24.5271C231.483 24.6665 232.022 24.897 232.51 25.2186C232.997 25.5349 233.389 25.9665 233.684 26.5133C233.984 27.0601 234.134 27.7436 234.134 28.5638V36.8301H231.336V35.1334H231.239C231.062 35.4765 230.813 35.7981 230.491 36.0983C230.175 36.3932 229.776 36.6317 229.293 36.814C228.816 36.9909 228.256 37.0794 227.613 37.0794ZM228.368 34.9404C228.953 34.9404 229.459 34.8251 229.888 34.5946C230.317 34.3588 230.647 34.0478 230.877 33.6619C231.113 33.2759 231.231 32.8551 231.231 32.3994V30.9439C231.14 31.019 230.984 31.0887 230.765 31.153C230.55 31.2173 230.309 31.2736 230.041 31.3219C229.773 31.3701 229.508 31.413 229.245 31.4505C228.982 31.4881 228.754 31.5202 228.561 31.547C228.127 31.606 227.738 31.7025 227.395 31.8365C227.052 31.9705 226.782 32.1582 226.583 32.3994C226.385 32.6353 226.286 32.9408 226.286 33.3161C226.286 33.8522 226.481 34.2569 226.873 34.5303C227.264 34.8037 227.763 34.9404 228.368 34.9404Z" fill="white"></path>
<path d="M2.39429 19.4296L5.12866 22.4468C5.20165 22.5273 5.19934 22.6508 5.12338 22.7286L4.1194 23.7564C4.03621 23.8415 3.89827 23.8385 3.81895 23.7497L0.0522838 19.5335C-0.0139904 19.4593 -0.01766 19.3483 0.0435691 19.2699L5.65951 12.0791C5.69849 12.0292 5.75827 12 5.82158 12H22.4926C22.556 12 22.6159 12.0292 22.6548 12.0792L28.2615 19.2703C28.3225 19.3485 28.3189 19.4591 28.253 19.5333L24.2553 24.0345C24.1728 24.1273 24.0277 24.1265 23.9462 24.0328L22.8571 22.7793C22.7889 22.7007 22.79 22.5835 22.8599 22.5064L25.5568 19.5282C25.6218 19.4565 25.628 19.3492 25.5716 19.2705L21.776 13.9686C21.7374 13.9147 21.6752 13.8827 21.6087 13.8827H6.69426C6.63166 13.8827 6.57248 13.9112 6.53347 13.9602L2.38587 19.1633C2.32303 19.2421 2.3266 19.3549 2.39429 19.4296Z" fill="#FAC515"></path>
<path fill-rule="evenodd" clip-rule="evenodd" d="M5.26608 25.2015L12.9765 17.311C13.072 17.2133 13.2344 17.2341 13.3022 17.3527L16.039 22.1471C16.1043 22.2616 16.2591 22.2859 16.3563 22.1969L18.1611 20.5472C18.2466 20.4691 18.3795 20.4768 18.4553 20.5643L22.6977 25.4612C22.7651 25.5389 22.7645 25.6545 22.6965 25.7317L14.3677 35.185C14.2866 35.277 14.1435 35.278 14.0611 35.1872L5.26083 25.4833C5.18777 25.4028 5.19007 25.2792 5.26608 25.2015ZM13.0947 20.2905L13.3667 22.0054C13.376 22.0639 13.4179 22.112 13.4747 22.129L14.3063 22.3784C14.3802 22.4005 14.4264 22.4739 14.4144 22.5501L13.7576 26.7099C13.7341 26.8582 13.915 26.9492 14.0201 26.8419L17.9881 22.7931C18.0616 22.7181 18.1868 22.7368 18.2352 22.83L18.5425 23.4229C18.5626 23.4617 18.5653 23.5073 18.5499 23.5483L17.9509 25.1369C17.8924 25.2922 18.087 25.4178 18.2043 25.3003L19.0427 24.4619C19.1202 24.3845 19.2514 24.4102 19.2939 24.5111L19.6702 25.405C19.6928 25.4584 19.6834 25.5201 19.6458 25.5643L19.088 26.2237C19.0454 26.2741 19.0395 26.346 19.0734 26.4026L19.3346 26.8378C19.3694 26.8959 19.3623 26.9699 19.317 27.0203L14.4889 32.3917C14.427 32.4604 14.319 32.4597 14.2581 32.3902L7.97672 25.2177C7.92301 25.1564 7.9263 25.0638 7.98423 25.0065L12.834 20.205C12.9232 20.1166 13.0751 20.1664 13.0947 20.2905Z" fill="#FAC515"></path>
<path fill-rule="evenodd" clip-rule="evenodd" d="M14.0559 36.4713C14.1587 36.5894 14.3425 36.5889 14.4447 36.4703L16.5051 34.0779C20.1259 34.3389 22.7639 35.1449 22.7639 36.0989C22.7639 37.2641 18.8281 38.2086 13.973 38.2086C9.11793 38.2086 5.18213 37.2641 5.18213 36.0989C5.18213 35.1011 8.06782 34.2652 11.9454 34.0454L14.0559 36.4713Z" fill="#FAC515"></path>
</g>
<defs>
<clipPath id="clip0_1868_226">
<rect width="248" height="54" fill="white"></rect>
</clipPath>
</defs>
</svg>