<svg width="248" height="54" viewBox="0 0 248 54" fill="none" xmlns="http://www.w3.org/2000/svg">
<g clip-path="url(#clip0_1868_219)">
<path d="M35.1189 36.8303V20.362H38.1022V27.3337H45.7333V20.362H48.7246V36.8303H45.7333V29.8345H38.1022V36.8303H35.1189ZM51.8406 36.8303V24.479H54.7515V36.8303H51.8406ZM53.3041 22.7261C52.843 22.7261 52.4463 22.5733 52.114 22.2677C51.7816 21.9568 51.6154 21.5842 51.6154 21.15C51.6154 20.7104 51.7816 20.3378 52.114 20.0323C52.4463 19.7213 52.843 19.5659 53.3041 19.5659C53.7704 19.5659 54.1671 19.7213 54.4941 20.0323C54.8265 20.3378 54.9927 20.7104 54.9927 21.15C54.9927 21.5842 54.8265 21.9568 54.4941 22.2677C54.1671 22.5733 53.7704 22.7261 53.3041 22.7261ZM62.3283 37.0474C61.358 37.0474 60.4895 36.7981 59.7229 36.2996C58.9563 35.801 58.3506 35.0773 57.9056 34.1284C57.4607 33.1796 57.2382 32.027 57.2382 30.6707C57.2382 29.2984 57.4633 28.1405 57.9137 27.197C58.3693 26.2481 58.9831 25.5324 59.7551 25.05C60.527 24.5621 61.3874 24.3182 62.3363 24.3182C63.06 24.3182 63.6551 24.4415 64.1214 24.6881C64.5878 24.9293 64.9577 25.2215 65.2311 25.5646C65.5045 25.9023 65.7163 26.2213 65.8664 26.5215H65.987V20.362H68.9059V36.8303H66.0433V34.8843H65.8664C65.7163 35.1845 65.4992 35.5035 65.215 35.8412C64.9309 36.1736 64.5557 36.4577 64.0893 36.6936C63.6229 36.9295 63.0359 37.0474 62.3283 37.0474ZM63.1404 34.6592C63.7569 34.6592 64.2823 34.493 64.7165 34.1606C65.1507 33.8229 65.4804 33.3538 65.7055 32.7534C65.9307 32.153 66.0433 31.4534 66.0433 30.6547C66.0433 29.8559 65.9307 29.1617 65.7055 28.572C65.4858 27.9823 65.1587 27.524 64.7245 27.197C64.2957 26.8699 63.7676 26.7064 63.1404 26.7064C62.4918 26.7064 61.9503 26.8753 61.5161 27.213C61.0819 27.5508 60.7549 28.0172 60.5351 28.6122C60.3153 29.2072 60.2054 29.8881 60.2054 30.6547C60.2054 31.4266 60.3153 32.1155 60.5351 32.7212C60.7602 33.3216 61.0899 33.7961 61.5241 34.1445C61.9637 34.4876 62.5025 34.6592 63.1404 34.6592ZM76.5913 37.0474C75.621 37.0474 74.7525 36.7981 73.9859 36.2996C73.2194 35.801 72.6136 35.0773 72.1686 34.1284C71.7237 33.1796 71.5012 32.027 71.5012 30.6707C71.5012 29.2984 71.7264 28.1405 72.1767 27.197C72.6323 26.2481 73.2462 25.5324 74.0181 25.05C74.7901 24.5621 75.6505 24.3182 76.5993 24.3182C77.323 24.3182 77.9181 24.4415 78.3845 24.6881C78.8509 24.9293 79.2207 25.2215 79.4941 25.5646C79.7675 25.9023 79.9793 26.2213 80.1294 26.5215H80.25V20.362H83.169V36.8303H80.3063V34.8843H80.1294C79.9793 35.1845 79.7622 35.5035 79.4781 35.8412C79.1939 36.1736 78.8187 36.4577 78.3523 36.6936C77.8859 36.9295 77.2989 37.0474 76.5913 37.0474ZM77.4034 34.6592C78.0199 34.6592 78.5453 34.493 78.9795 34.1606C79.4137 33.8229 79.7434 33.3538 79.9686 32.7534C80.1937 32.153 80.3063 31.4534 80.3063 30.6547C80.3063 29.8559 80.1937 29.1617 79.9686 28.572C79.7488 27.9823 79.4218 27.524 78.9876 27.197C78.5587 26.8699 78.0307 26.7064 77.4034 26.7064C76.7548 26.7064 76.2133 26.8753 75.7791 27.213C75.3449 27.5508 75.0179 28.0172 74.7981 28.6122C74.5783 29.2072 74.4684 29.8881 74.4684 30.6547C74.4684 31.4266 74.5783 32.1155 74.7981 32.7212C75.0233 33.3216 75.3529 33.7961 75.7872 34.1445C76.2267 34.4876 76.7655 34.6592 77.4034 34.6592ZM91.7388 37.0715C90.5005 37.0715 89.431 36.8142 88.5304 36.2996C87.6352 35.7796 86.9463 35.0451 86.4638 34.0963C85.9814 33.1421 85.7401 32.019 85.7401 30.727C85.7401 29.4565 85.9814 28.3415 86.4638 27.3819C86.9517 26.417 87.6325 25.6665 88.5063 25.1304C89.3801 24.5889 90.4067 24.3182 91.5861 24.3182C92.3473 24.3182 93.0656 24.4415 93.7411 24.6881C94.4219 24.9293 95.0223 25.3046 95.5423 25.8139C96.0677 26.3231 96.4804 26.9718 96.7807 27.7598C97.0809 28.5425 97.231 29.4753 97.231 30.5582V31.4507H87.1071V29.4887H94.4407C94.4353 28.9312 94.3147 28.4353 94.0788 28.0011C93.8429 27.5615 93.5133 27.2157 93.0898 26.9638C92.6716 26.7118 92.1838 26.5858 91.6263 26.5858C91.0312 26.5858 90.5085 26.7306 90.0582 27.02C89.6079 27.3042 89.2568 27.6794 89.0048 28.1458C88.7582 28.6068 88.6323 29.1134 88.6269 29.6656V31.3784C88.6269 32.0967 88.7582 32.7132 89.0209 33.2278C89.2836 33.7371 89.6508 34.1284 90.1226 34.4018C90.5943 34.6699 91.1465 34.8039 91.779 34.8039C92.2025 34.8039 92.5858 34.7449 92.9289 34.627C93.272 34.5037 93.5695 34.3241 93.8215 34.0882C94.0735 33.8524 94.2638 33.5602 94.3924 33.2118L97.1103 33.5173C96.9388 34.2357 96.6118 34.8629 96.1293 35.3989C95.6522 35.9297 95.0411 36.3424 94.2959 36.6373C93.5508 36.9268 92.6984 37.0715 91.7388 37.0715ZM102.604 29.5932V36.8303H99.6936V24.479H102.476V26.5778H102.621C102.905 25.8862 103.358 25.3368 103.98 24.9293C104.607 24.5219 105.381 24.3182 106.303 24.3182C107.156 24.3182 107.898 24.5005 108.531 24.865C109.169 25.2295 109.662 25.7576 110.01 26.4491C110.364 27.1407 110.538 27.9796 110.533 28.966V36.8303H107.622V29.4163C107.622 28.5908 107.408 27.9448 106.979 27.4784C106.555 27.012 105.968 26.7788 105.218 26.7788C104.709 26.7788 104.256 26.8914 103.859 27.1165C103.468 27.3363 103.159 27.6553 102.934 28.0734C102.714 28.4916 102.604 28.9982 102.604 29.5932ZM124.653 25.6209C124.519 25.1867 124.334 24.798 124.099 24.4549C123.868 24.1065 123.589 23.8089 123.262 23.5623C122.941 23.3158 122.571 23.1308 122.153 23.0075C121.734 22.8788 121.279 22.8145 120.786 22.8145C119.901 22.8145 119.113 23.037 118.421 23.4819C117.73 23.9269 117.186 24.5809 116.789 25.444C116.398 26.3017 116.202 27.3471 116.202 28.58C116.202 29.8237 116.398 30.8771 116.789 31.7402C117.18 32.6033 117.725 33.26 118.421 33.7103C119.118 34.1552 119.928 34.3777 120.85 34.3777C121.686 34.3777 122.41 34.2169 123.021 33.8953C123.637 33.5736 124.112 33.1179 124.444 32.5283C124.777 31.9332 124.943 31.2363 124.943 30.4375L125.618 30.5421H121.147V28.2101H127.83V30.1883C127.83 31.5982 127.529 32.8177 126.929 33.847C126.329 34.8763 125.503 35.6697 124.452 36.2272C123.402 36.7794 122.195 37.0554 120.834 37.0554C119.317 37.0554 117.985 36.715 116.837 36.0342C115.695 35.348 114.803 34.375 114.16 33.1153C113.522 31.8501 113.203 30.3491 113.203 28.6122C113.203 27.2827 113.39 26.0953 113.766 25.05C114.146 24.0046 114.677 23.1174 115.358 22.3883C116.039 21.6539 116.837 21.0964 117.754 20.7158C118.671 20.3298 119.668 20.1368 120.745 20.1368C121.657 20.1368 122.506 20.2708 123.294 20.5389C124.082 20.8015 124.782 21.1768 125.393 21.6646C126.01 22.1525 126.516 22.7314 126.913 23.4015C127.31 24.0716 127.57 24.8114 127.693 25.6209H124.653ZM136.054 37.0715C134.815 37.0715 133.746 36.8142 132.845 36.2996C131.95 35.7796 131.261 35.0451 130.779 34.0963C130.296 33.1421 130.055 32.019 130.055 30.727C130.055 29.4565 130.296 28.3415 130.779 27.3819C131.267 26.417 131.947 25.6665 132.821 25.1304C133.695 24.5889 134.722 24.3182 135.901 24.3182C136.662 24.3182 137.381 24.4415 138.056 24.6881C138.737 24.9293 139.337 25.3046 139.857 25.8139C140.383 26.3231 140.795 26.9718 141.096 27.7598C141.396 28.5425 141.546 29.4753 141.546 30.5582V31.4507H131.422V29.4887H138.756C138.75 28.9312 138.63 28.4353 138.394 28.0011C138.158 27.5615 137.828 27.2157 137.405 26.9638C136.987 26.7118 136.499 26.5858 135.941 26.5858C135.346 26.5858 134.823 26.7306 134.373 27.02C133.923 27.3042 133.572 27.6794 133.32 28.1458C133.073 28.6068 132.947 29.1134 132.942 29.6656V31.3784C132.942 32.0967 133.073 32.7132 133.336 33.2278C133.598 33.7371 133.966 34.1284 134.437 34.4018C134.909 34.6699 135.461 34.8039 136.094 34.8039C136.517 34.8039 136.901 34.7449 137.244 34.627C137.587 34.5037 137.884 34.3241 138.136 34.0882C138.388 33.8524 138.579 33.5602 138.707 33.2118L141.425 33.5173C141.254 34.2357 140.927 34.8629 140.444 35.3989C139.967 35.9297 139.356 36.3424 138.611 36.6373C137.866 36.9268 137.013 37.0715 136.054 37.0715ZM144.008 36.8303V24.479H146.791V26.5778H146.935C147.193 25.8702 147.619 25.318 148.214 24.9213C148.809 24.5192 149.519 24.3182 150.345 24.3182C151.181 24.3182 151.886 24.5219 152.46 24.9293C153.039 25.3314 153.446 25.8809 153.682 26.5778H153.811C154.084 25.8916 154.545 25.3448 155.194 24.9374C155.848 24.5246 156.622 24.3182 157.518 24.3182C158.654 24.3182 159.582 24.6774 160.3 25.3957C161.018 26.1141 161.377 27.1621 161.377 28.5398V36.8303H158.458V28.9901C158.458 28.2235 158.255 27.6633 157.847 27.3095C157.44 26.9504 156.941 26.7708 156.352 26.7708C155.649 26.7708 155.1 26.9906 154.703 27.4301C154.312 27.8644 154.116 28.4299 154.116 29.1268V36.8303H151.262V28.8695C151.262 28.2316 151.069 27.7223 150.683 27.3417C150.302 26.9611 149.803 26.7708 149.187 26.7708C148.769 26.7708 148.388 26.878 148.045 27.0924C147.702 27.3015 147.429 27.599 147.225 27.985C147.021 28.3656 146.919 28.8106 146.919 29.3198V36.8303H144.008ZM170.076 20.362H173.727L178.616 32.2951H178.809L183.698 20.362H187.348V36.8303H184.486V25.5164H184.333L179.782 36.782H177.643L173.091 25.4922H172.939V36.8303H170.076V20.362ZM195.936 37.0715C194.698 37.0715 193.629 36.8142 192.728 36.2996C191.833 35.7796 191.144 35.0451 190.661 34.0963C190.179 33.1421 189.938 32.019 189.938 30.727C189.938 29.4565 190.179 28.3415 190.661 27.3819C191.149 26.417 191.83 25.6665 192.704 25.1304C193.578 24.5889 194.604 24.3182 195.784 24.3182C196.545 24.3182 197.263 24.4415 197.939 24.6881C198.619 24.9293 199.22 25.3046 199.74 25.8139C200.265 26.3231 200.678 26.9718 200.978 27.7598C201.278 28.5425 201.428 29.4753 201.428 30.5582V31.4507H191.305V29.4887H198.638C198.633 28.9312 198.512 28.4353 198.276 28.0011C198.04 27.5615 197.711 27.2157 197.287 26.9638C196.869 26.7118 196.381 26.5858 195.824 26.5858C195.229 26.5858 194.706 26.7306 194.256 27.02C193.805 27.3042 193.454 27.6794 193.202 28.1458C192.956 28.6068 192.83 29.1134 192.824 29.6656V31.3784C192.824 32.0967 192.956 32.7132 193.218 33.2278C193.481 33.7371 193.848 34.1284 194.32 34.4018C194.792 34.6699 195.344 34.8039 195.977 34.8039C196.4 34.8039 196.783 34.7449 197.126 34.627C197.47 34.5037 197.767 34.3241 198.019 34.0882C198.271 33.8524 198.461 33.5602 198.59 33.2118L201.308 33.5173C201.136 34.2357 200.809 34.8629 200.327 35.3989C199.85 35.9297 199.239 36.3424 198.493 36.6373C197.748 36.9268 196.896 37.0715 195.936 37.0715ZM208.475 37.0474C207.504 37.0474 206.636 36.7981 205.869 36.2996C205.103 35.801 204.497 35.0773 204.052 34.1284C203.607 33.1796 203.384 32.027 203.384 30.6707C203.384 29.2984 203.61 28.1405 204.06 27.197C204.516 26.2481 205.129 25.5324 205.901 25.05C206.673 24.5621 207.534 24.3182 208.483 24.3182C209.206 24.3182 209.801 24.4415 210.268 24.6881C210.734 24.9293 211.104 25.2215 211.377 25.5646C211.651 25.9023 211.863 26.2213 212.013 26.5215H212.133V20.362H215.052V36.8303H212.19V34.8843H212.013C211.863 35.1845 211.645 35.5035 211.361 35.8412C211.077 36.1736 210.702 36.4577 210.236 36.6936C209.769 36.9295 209.182 37.0474 208.475 37.0474ZM209.287 34.6592C209.903 34.6592 210.429 34.493 210.863 34.1606C211.297 33.8229 211.627 33.3538 211.852 32.7534C212.077 32.153 212.19 31.4534 212.19 30.6547C212.19 29.8559 212.077 29.1617 211.852 28.572C211.632 27.9823 211.305 27.524 210.871 27.197C210.442 26.8699 209.914 26.7064 209.287 26.7064C208.638 26.7064 208.097 26.8753 207.662 27.213C207.228 27.5508 206.901 28.0172 206.681 28.6122C206.462 29.2072 206.352 29.8881 206.352 30.6547C206.352 31.4266 206.462 32.1155 206.681 32.7212C206.906 33.3216 207.236 33.7961 207.67 34.1445C208.11 34.4876 208.649 34.6592 209.287 34.6592ZM218.154 36.8303V24.479H221.065V36.8303H218.154ZM219.618 22.7261C219.157 22.7261 218.76 22.5733 218.427 22.2677C218.095 21.9568 217.929 21.5842 217.929 21.15C217.929 20.7104 218.095 20.3378 218.427 20.0323C218.76 19.7213 219.157 19.5659 219.618 19.5659C220.084 19.5659 220.481 19.7213 220.808 20.0323C221.14 20.3378 221.306 20.7104 221.306 21.15C221.306 21.5842 221.14 21.9568 220.808 22.2677C220.481 22.5733 220.084 22.7261 219.618 22.7261ZM227.613 37.0796C226.83 37.0796 226.125 36.9402 225.498 36.6614C224.876 36.3773 224.383 35.9592 224.018 35.407C223.659 34.8548 223.479 34.174 223.479 33.3645C223.479 32.6676 223.608 32.0913 223.865 31.6357C224.123 31.18 224.474 30.8155 224.919 30.5421C225.364 30.2687 225.865 30.0623 226.422 29.9229C226.985 29.7782 227.567 29.6736 228.167 29.6093C228.891 29.5343 229.478 29.4672 229.928 29.4083C230.379 29.3439 230.706 29.2475 230.909 29.1188C231.118 28.9848 231.223 28.7784 231.223 28.4996V28.4514C231.223 27.8456 231.043 27.3765 230.684 27.0442C230.325 26.7118 229.808 26.5456 229.132 26.5456C228.419 26.5456 227.854 26.7011 227.436 27.012C227.023 27.3229 226.744 27.6901 226.599 28.1136L223.881 27.7277C224.096 26.9772 224.45 26.35 224.943 25.846C225.436 25.3368 226.039 24.9561 226.752 24.7042C227.465 24.4469 228.253 24.3182 229.116 24.3182C229.711 24.3182 230.304 24.3879 230.893 24.5273C231.483 24.6667 232.022 24.8972 232.51 25.2188C232.997 25.5351 233.389 25.9667 233.684 26.5135C233.984 27.0603 234.134 27.7438 234.134 28.564V36.8303H231.336V35.1336H231.239C231.062 35.4767 230.813 35.7983 230.491 36.0985C230.175 36.3934 229.776 36.6319 229.293 36.8142C228.816 36.9911 228.256 37.0796 227.613 37.0796ZM228.368 34.9406C228.953 34.9406 229.459 34.8253 229.888 34.5948C230.317 34.359 230.647 34.048 230.877 33.6621C231.113 33.2761 231.231 32.8553 231.231 32.3996V30.9441C231.14 31.0192 230.984 31.0889 230.765 31.1532C230.55 31.2175 230.309 31.2738 230.041 31.3221C229.773 31.3703 229.508 31.4132 229.245 31.4507C228.982 31.4883 228.754 31.5204 228.561 31.5472C228.127 31.6062 227.738 31.7027 227.395 31.8367C227.052 31.9707 226.782 32.1584 226.583 32.3996C226.385 32.6355 226.286 32.941 226.286 33.3163C226.286 33.8524 226.481 34.2571 226.873 34.5305C227.264 34.8039 227.763 34.9406 228.368 34.9406Z" fill="#3F3F3F"></path>
<path d="M2.39429 19.4296L5.12866 22.4468C5.20165 22.5273 5.19934 22.6508 5.12338 22.7286L4.1194 23.7564C4.03621 23.8415 3.89827 23.8385 3.81895 23.7497L0.0522838 19.5335C-0.0139904 19.4593 -0.01766 19.3483 0.0435691 19.2699L5.65951 12.0791C5.69849 12.0292 5.75827 12 5.82158 12H22.4926C22.556 12 22.6159 12.0292 22.6548 12.0792L28.2615 19.2703C28.3225 19.3485 28.3189 19.4591 28.253 19.5333L24.2553 24.0345C24.1728 24.1273 24.0277 24.1265 23.9462 24.0328L22.8571 22.7793C22.7889 22.7007 22.79 22.5835 22.8599 22.5064L25.5568 19.5282C25.6218 19.4565 25.628 19.3492 25.5716 19.2705L21.776 13.9686C21.7374 13.9147 21.6752 13.8827 21.6087 13.8827H6.69426C6.63166 13.8827 6.57248 13.9112 6.53347 13.9602L2.38587 19.1633C2.32303 19.2421 2.3266 19.3549 2.39429 19.4296Z" fill="#FBBC04"></path>
<path fill-rule="evenodd" clip-rule="evenodd" d="M5.26608 25.2015L12.9765 17.311C13.072 17.2133 13.2344 17.2341 13.3022 17.3527L16.039 22.1471C16.1043 22.2616 16.2591 22.2859 16.3563 22.1969L18.1611 20.5472C18.2466 20.4691 18.3795 20.4768 18.4553 20.5643L22.6977 25.4612C22.7651 25.5389 22.7645 25.6545 22.6965 25.7317L14.3677 35.185C14.2866 35.277 14.1435 35.278 14.0611 35.1872L5.26083 25.4833C5.18777 25.4028 5.19007 25.2792 5.26608 25.2015ZM13.0947 20.2905L13.3667 22.0054C13.376 22.0639 13.4179 22.112 13.4747 22.129L14.3063 22.3784C14.3802 22.4005 14.4264 22.4739 14.4144 22.5501L13.7576 26.7099C13.7341 26.8582 13.915 26.9492 14.0201 26.8419L17.9881 22.7931C18.0616 22.7181 18.1868 22.7368 18.2352 22.83L18.5425 23.4229C18.5626 23.4617 18.5653 23.5073 18.5499 23.5483L17.9509 25.1369C17.8924 25.2922 18.087 25.4178 18.2043 25.3003L19.0427 24.4619C19.1202 24.3845 19.2514 24.4102 19.2939 24.5111L19.6702 25.405C19.6928 25.4584 19.6834 25.5201 19.6458 25.5643L19.088 26.2237C19.0454 26.2741 19.0395 26.346 19.0734 26.4026L19.3346 26.8378C19.3694 26.8959 19.3623 26.9699 19.317 27.0203L14.4889 32.3917C14.427 32.4604 14.319 32.4597 14.2581 32.3902L7.97672 25.2177C7.92301 25.1564 7.9263 25.0638 7.98423 25.0065L12.834 20.205C12.9232 20.1166 13.0751 20.1664 13.0947 20.2905Z" fill="#FBBC04"></path>
<path fill-rule="evenodd" clip-rule="evenodd" d="M14.0559 36.4713C14.1587 36.5894 14.3425 36.5889 14.4447 36.4703L16.5051 34.0779C20.1259 34.3389 22.7639 35.1449 22.7639 36.0989C22.7639 37.2641 18.8281 38.2086 13.973 38.2086C9.11793 38.2086 5.18213 37.2641 5.18213 36.0989C5.18213 35.1011 8.06782 34.2652 11.9454 34.0454L14.0559 36.4713Z" fill="#FBBC04"></path>
</g>
<defs>
<clipPath id="clip0_1868_219">
<rect width="248" height="54" fill="white"></rect>
</clipPath>
</defs>
</svg>